<svg xmlns="http://www.w3.org/2000/svg" viewBox="0 0 383.3 384"><defs><style>.cls-1{fill:#ff5276;}</style></defs><g id="Capa_2" data-name="Capa 2"><g id="Capa_1-2" data-name="Capa 1"><path class="cls-1" d="M0,149.25l3.92-4.93a23.37,23.37,0,0,0,0-29.13c-1.31-1.63-2.6-3.29-3.9-4.94v-4.5c1.58-1.9,3-3.93,4.75-5.67Q19.35,85.34,34.06,70.7c4.89-4.89,7.71-5,13.19-.6A16.14,16.14,0,0,0,70,47.35c-4.46-5.58-4.3-8.35.84-13.5q15-15.09,30.13-30.14A55.23,55.23,0,0,1,105.54,0H110L115,3.91a23.24,23.24,0,0,0,29.36-.22C145.86,2.44,147.42,1.23,149,0h4.49a45.83,45.83,0,0,1,4.37,3.43q111,111.18,222,222.42c4.5,4.51,4.58,7.82.47,12.69-8.13,9.64-8.12,21.74,0,31.41,4.08,4.83,4,8.15-.55,12.69Q364.48,298,349.1,313.4c-4.73,4.72-7.73,4.85-12.94.63-6.67-5.4-15.87-5.11-21.8.71S308,330,313.45,336.85c4.19,5.2,4.05,8.19-.69,12.95q-14.67,14.74-29.39,29.42c-1.74,1.73-3.77,3.19-5.66,4.78h-4.49c-1.65-1.3-3.31-2.59-4.94-3.91a23.24,23.24,0,0,0-29.07,0c-1.63,1.31-3.28,2.61-4.92,3.92H229.8a64,64,0,0,1-5.16-4.22q-110-110.13-219.9-220.32C3,157.71,1.57,155.66,0,153.75Zm360.79,94.5a32.88,32.88,0,0,1,3.26-7.92c1.36-2.24,1.17-3.49-.69-5.35Q258.22,125.32,153.21,20c-.7-.71-1.44-1.37-2.3-2.2-.67.3-1.34.55-2,.89-12.67,7-25.44,7.18-38.17.32-2-1.1-3.15-1-4.73.66C99.52,26.42,92.88,33,86.23,39.61c-1.27,1.26-1.82,2.18-.93,4.13,6,13.16,3.69,26.77-6,36.24S56.05,91.39,43,85.24c-.44-.21-.9-.38-1.13-.48L18,108.71c.42.83,1,2,1.62,3.21,5.94,11.87,6.11,23.82-.06,35.57-1.6,3-1.12,4.55,1.17,6.84Q109.3,242.9,197.75,331.64c11.46,11.48,22.89,23,34.12,34.27,4.73-1.77,9-3.89,13.53-5a35.92,35.92,0,0,1,27.07,4c2.07,1.19,3.17.92,4.72-.67,6.54-6.7,13.18-13.31,19.83-19.9,1.26-1.25,1.82-2.17.94-4.13-6-13.21-3.69-26.8,6-36.24S327.2,292.6,340.57,299a3.05,3.05,0,0,0,.73.22l24.05-24C359.5,265.49,357.57,255,360.79,243.75Z"/><path class="cls-1" d="M64.89,123.1q29-29,58-58c13.21-13.19,31-13.2,44.19,0q75.7,75.8,151.35,151.64c13,13.08,13.05,30.94.06,44Q289.4,289.93,260.22,319a36.48,36.48,0,0,1-8.29,6.3c-11.87,6.34-25.45,3.9-35.6-6.26q-52.56-52.59-105.06-105.24Q88,190.5,64.7,167.17c-6.11-6.11-9.55-13.32-9.47-22.07S58.78,129.2,64.89,123.1ZM200.82,281.5,281,201.2l-98.31-98.49L102.54,183ZM153.68,73.35c-5.43-4.89-13.56-4.06-19.05,1.21-5.13,4.93-10.09,10-15.12,15.08q-21.69,21.74-43.39,43.48c-8.2,8.24-8.13,16.08.13,24.39,4.74,4.78,9.46,9.57,13.92,14.08l80.56-80.74C165.35,85.27,159.87,78.92,153.68,73.35Zm58.65,219.36c5.69,6,11.17,12.49,17.46,18.1,5.49,4.89,13.7,3.73,19.3-1.83,9.32-9.22,18.54-18.54,27.8-27.82q15.35-15.37,30.69-30.76c7.52-7.55,7.49-15.78,0-23.31-5-5-10-10.09-14.81-15Z"/><path class="cls-1" d="M168.15,160c1.08,7.91,1.85,14.61,3,21.26.48,2.84.12,4.48-2.81,5.8-6,2.72-11.79,5.93-17.67,8.93-2,1-4.15,2.32-3.16,4.72a6.64,6.64,0,0,0,4.25,3.27c6.68,1.48,13.43,2.72,20.21,3.67,2.53.36,3.27,1.43,3.59,3.71,1,6.91,2,13.83,3.41,20.68.3,1.53,1.94,3.86,3,3.9a6.12,6.12,0,0,0,4.5-2.78c3.47-5.91,6.64-12,9.71-18.13,1.13-2.25,2.35-3,4.92-2.54,6.73,1.26,13.5,2.37,20.29,3.15,1.64.19,4.34-.69,4.93-1.88s-.29-3.88-1.4-5.11c-4.6-5.09-9.45-10-14.38-14.73-1.78-1.71-1.87-3.06-.75-5.15,3.25-6,6.46-12.11,9.3-18.34a6.59,6.59,0,0,0-.28-5.62c-.62-.87-3.69-.73-5.23-.06-6.16,2.71-12.21,5.67-18.15,8.81-2.37,1.25-3.83,1.14-5.71-.89-4.65-5-9.46-9.95-14.45-14.65-1.12-1.06-3.49-1.81-4.8-1.34S168.56,159.31,168.15,160Z"/></g></g></svg>