<svg xmlns="http://www.w3.org/2000/svg" viewBox="0 0 1581.23 772.43"><defs><style>.cls-1{fill:#fee25d;}.cls-2{fill:#2dffcd;}.cls-3{fill:#ff5276;}.cls-4{fill:#333b43;}</style></defs><g id="Capa_2" data-name="Capa 2"><g id="Design"><polygon class="cls-1" points="691.22 391.08 490.14 391.08 439.86 513.47 741.5 513.47 691.22 391.08"/><polygon class="cls-1" points="682.78 220.27 499.96 220.27 499.96 284.85 591.37 284.85 591.37 293.38 608.42 293.38 608.42 284.85 682.78 284.85 682.78 220.27"/><path class="cls-2" d="M1165.5,607.2v19.63H1255V718.9H1165.5v36.47h343.18V607.2ZM1489,718.9H1291.67V626.83H1489Z"/><polygon class="cls-2" points="1204.18 502.17 1165.5 502.17 1165.5 573.09 1275.1 573.09 1204.18 502.17"/><path class="cls-2" d="M103,695.65H363.43V542.14H103ZM233.21,563.71h88.08V657H233.21ZM168.1,585.46a24.91,24.91,0,1,1-24.91,24.9A24.9,24.9,0,0,1,168.1,585.46Z"/><circle class="cls-2" cx="303.71" cy="411.55" r="35.44"/><circle class="cls-2" cx="158.25" cy="433.07" r="27.58"/><rect class="cls-2" x="397.54" y="594.64" width="24.58" height="31.45"/><path class="cls-3" d="M1047.46,736a220.21,220.21,0,0,1-36.53,19.42h103.45V736Z"/><path class="cls-3" d="M1108.34,560.08c0-113.8-92.58-206.39-206.38-206.39a206.77,206.77,0,0,0-77.86,15.07,206.93,206.93,0,0,0-64.16,56.32l-6.66-5s-5.93,8.56-7.5,14.06l37.36,90.93-69.67,48.78c.29,4.75,1.43,12.2,1.43,12.2l6.82-1.19a206.4,206.4,0,0,0,280.75,155.42C1065.58,704.93,1108.34,637.41,1108.34,560.08Zm-297.9,84.65a151,151,0,0,1-33.24-74.66l55.16-4.68a95.11,95.11,0,0,0,18.46,41.47ZM847,496.32l-48.48-26.71a150.9,150.9,0,0,1,60.73-54.68l21.49,51A95.22,95.22,0,0,0,847,496.32Zm78,23.93A28.74,28.74,0,1,1,896.27,549,28.73,28.73,0,0,1,925,520.25ZM899.38,696.07l12.6-53.9a95.23,95.23,0,0,0,45.15-4.74l23.53,50.1A150.93,150.93,0,0,1,899.38,696.07Zm90.94-214.81A95.2,95.2,0,0,0,951,458.56l10.41-54.36a150.86,150.86,0,0,1,70.78,40.86ZM1019,545.77l54.93-6.9a150.94,150.94,0,0,1-17,79.94l-47.36-28.64A95.17,95.17,0,0,0,1019,545.77Z"/><path class="cls-4" d="M888,549A37.06,37.06,0,1,0,925,511.93,37.1,37.1,0,0,0,888,549ZM945,549a20,20,0,1,1-20-20A20,20,0,0,1,945,549Z"/><path class="cls-4" d="M860.41,395.67a167.8,167.8,0,0,0-81.13,73.05l-4.13,7.47,78.24,43.09,4.12-7.45A77.82,77.82,0,0,1,895.11,478l7.84-3.31-34.67-82.32ZM847,496.32l-48.48-26.71a150.9,150.9,0,0,1,60.73-54.68l21.49,51A95.22,95.22,0,0,0,847,496.32Z"/><path class="cls-4" d="M848.23,555.48,847.5,547l-89,7.54.73,8.5a167.79,167.79,0,0,0,44.41,99.74l5.83,6.24,65.15-61.1-5.81-6.22A77.81,77.81,0,0,1,848.23,555.48Zm-37.79,89.25a151,151,0,0,1-33.24-74.66l55.16-4.68a95.11,95.11,0,0,0,18.46,41.47Z"/><path class="cls-4" d="M957.78,618.72A77.7,77.7,0,0,1,907.46,624l-8.3-1.92-20.33,87,8.32,1.94a167.88,167.88,0,0,0,108.57-11.42l7.74-3.61-38-80.85Zm-58.4,77.35,12.6-53.9a95.23,95.23,0,0,0,45.15-4.74l23.53,50.1A150.93,150.93,0,0,1,899.38,696.07Z"/><path class="cls-4" d="M1067.39,635.06a167.85,167.85,0,0,0,22.7-106.79l-1.06-8.48-88.62,11.14,1.05,8.44a77.82,77.82,0,0,1-10.52,49.5l-4.39,7.29L1063,642.37Zm-57.78-44.89a95.17,95.17,0,0,0,9.43-44.4l54.93-6.9a150.93,150.93,0,0,1-17,79.94Z"/><path class="cls-4" d="M956.32,385.59,947.93,384l-16.8,87.72,8.36,1.62a77.77,77.77,0,0,1,43.82,25.3l5.58,6.43,67.57-58.41-5.6-6.45A167.8,167.8,0,0,0,956.32,385.59Zm34,95.67A95.09,95.09,0,0,0,951,458.56l10.41-54.37a151,151,0,0,1,70.78,40.87Z"/><rect class="cls-4" x="204.27" y="225.97" width="153.09" height="17.05" transform="translate(-83.56 267.24) rotate(-45)"/><rect class="cls-4" x="190.17" y="227.72" width="76.54" height="17.05" transform="translate(-100.14 230.74) rotate(-45)"/><path class="cls-4" d="M159.4,313.14l6-6a12.34,12.34,0,0,1,17.45,17.45l12.06,12.06a29.4,29.4,0,0,0-34.65-46.71l-13.78-13.79L322.44,100.19,336.23,114A29.39,29.39,0,0,0,376,153.76l13.79,13.79L277.63,279.72l12.06,12.06L413.92,167.55l-37-37-6,6a12.34,12.34,0,1,1-17.46-17.45l6-6L332.28,85.91l9.57-26.29L292.66,41.71l-2.91,8a12.35,12.35,0,1,1-23.2-8.45l2.92-8-49.19-17.9-95.7,262.94ZM230.47,37.23l18.32,6.66a29.4,29.4,0,0,0,52.88,19.25L320,69.81l-5,13.7L155.62,242.9Z"/><path class="cls-4" d="M1254.82,355.82a34.73,34.73,0,1,0-34.73-34.73A34.77,34.77,0,0,0,1254.82,355.82Zm0-52.41a17.68,17.68,0,1,1-17.68,17.68A17.7,17.7,0,0,1,1254.82,303.41Z"/><path class="cls-4" d="M1072.62,107.42V162H1178.7v.06h24.06v14.16a41,41,0,0,0,40.91,40.91h2.62v27.08h-52.85a58.1,58.1,0,0,0-58,58v37.61a58.11,58.11,0,0,0,58,58h122.75a58.11,58.11,0,0,0,58-58V302.28a58.1,58.1,0,0,0-58-58h-52.85V217.17H1266a41,41,0,0,0,40.91-40.91V162.1h24.06V162H1437V72.48h34.59V55.43H1437a35.51,35.51,0,0,0-70.9,0H1331.4V72.48H1366v34.94h-36.94a57.4,57.4,0,0,0-55.42-42.74H1236a57.4,57.4,0,0,0-55.42,42.74h-36.94V72.48h34.59V55.43h-34.65a35.51,35.51,0,0,0-70.9,0H1038V72.48h34.59Zm310.42-50a18.46,18.46,0,0,1,36.92,0v50H1383Zm-52.11,67h89V145h-89ZM1316.19,261.3a41,41,0,0,1,41,41v37.61a41,41,0,0,1-41,41H1193.44a41,41,0,0,1-41-41V302.28a41,41,0,0,1,41-41Zm-26.37-85A23.88,23.88,0,0,1,1266,200.11h-22.29a23.88,23.88,0,0,1-23.86-23.85V162.1h70ZM1195.75,122A40.3,40.3,0,0,1,1236,81.73h37.63A40.3,40.3,0,0,1,1313.88,122v23.07H1195.75ZM1089.67,57.45a18.46,18.46,0,0,1,36.92,0v50h-36.92Zm0,67h89V145h-89Z"/><circle class="cls-4" cx="1325.22" cy="293.25" r="13.49" transform="matrix(0.53, -0.85, 0.85, 0.53, 379.06, 1266.38)"/><path class="cls-4" d="M747.06,157a44.66,44.66,0,0,0,5.55,1.57L788.73,343.5l16.74-3.27-35.35-181a65.67,65.67,0,0,0,33.62-14.41L826.46,325l16.92-2.14L822.32,155.88a109.74,109.74,0,0,0,46.11,14.06V313.13h17.06V169.94a109.7,109.7,0,0,0,46.11-14.06l-19,150.77,16.92,2.13,20.67-163.94a65.67,65.67,0,0,0,33.63,14.41L954.42,309.69,971.15,313l30.16-154.37a44.82,44.82,0,0,0,5.56-1.57c16.62-6,26.16-21,26.16-41.32a42.75,42.75,0,0,0-10.42-27.15,40.71,40.71,0,0,0-25-13.55A50.66,50.66,0,0,0,923.8,45.91a53.05,53.05,0,0,0-93.68,0A50.66,50.66,0,0,0,756.29,75a40.72,40.72,0,0,0-25,13.55,42.7,42.7,0,0,0-10.43,27.15C720.89,136,730.43,151.07,747.06,157Zm16.12-65.48h7.27l1.15-7.17A33.56,33.56,0,0,1,828,65.55l10.45,10.06,3.71-14a36,36,0,0,1,69.57,0l3.7,14L925.9,65.55a33.56,33.56,0,0,1,56.42,18.82l1.15,7.17h7.27c19.07,0,25.23,16.28,25.23,24.16,0,13.24-5,21.74-14.84,25.26-14,5-34.79-1.65-45.36-14.54l-6-7.28-6.66,6.65a93.6,93.6,0,0,1-132.38,0l-6.65-6.65-6,7.28C787.58,139.31,766.81,146,752.8,141c-9.86-3.52-14.85-12-14.85-25.26C738,107.82,744.12,91.54,763.18,91.54Z"/><circle class="cls-4" cx="1192.07" cy="537.7" r="17.24" transform="translate(-115.03 497.12) rotate(-22.5)"/><polygon class="cls-4" points="1165.5 701.85 1165.5 718.9 1254.98 718.9 1254.98 626.83 1165.5 626.83 1165.5 643.88 1237.93 643.88 1237.93 701.85 1165.5 701.85"/><path class="cls-4" d="M1291.67,626.83V718.9H1489V626.83Zm180.32,75H1308.72v-58H1472Z"/><path class="cls-4" d="M233.21,657h88.08V563.71H233.21Zm17-76.25h54V640h-54Z"/><path class="cls-4" d="M168.1,577.37a33,33,0,1,0,33,33A33,33,0,0,0,168.1,577.37Zm0,48.94A15.95,15.95,0,1,1,184,610.37,16,16,0,0,1,168.1,626.31Z"/><path class="cls-4" d="M303.71,455.62a44.08,44.08,0,1,0-22.8-81.81l8.83,14.59a27,27,0,1,1-9,9l-14.5-9a44.09,44.09,0,0,0,37.51,67.25Z"/><path class="cls-4" d="M158.25,468.79a35.72,35.72,0,1,0-16.08-67.63l7.68,15.23a18.48,18.48,0,0,1,8.4-2,18.67,18.67,0,1,1-18.67,18.67,18.48,18.48,0,0,1,2-8.4L126.34,417a35.74,35.74,0,0,0,31.91,51.8Z"/><path class="cls-4" d="M1542.79,521.62H1289.65l239.76-111.8-29-62.09L1205.82,485.12H1165.5v17.05h38.68l70.92,70.92h-63.81v0l-45.78,0,0,17h360.25V755.37H1148.45V701.85H1088a223.48,223.48,0,0,0-264.43-352,225.55,225.55,0,0,0-77.23,65l13.63,10.25C799.35,372.66,859.52,342.6,925,342.6c113.8,0,206.39,92.59,206.39,206.39S1038.81,755.37,925,755.37A205.91,205.91,0,0,1,721.72,584.85l-16.79,2.94A223.39,223.39,0,0,0,839.42,755.37H775.35L614.76,643,783.14,525.06,716.89,363.81v-222h-17v44.33H500V141.84h-17v222L416.66,525.06l40.67,28.48,9.78-14-12.93-9.05H745.61l-145.71,102-55.13-38.6-9.78,14,50,35L424.45,755.37H286.81a68.2,68.2,0,0,0,22.63-42.67h88.1V643.14h48l71.59,37.6V540l-71.59,37.6h-48V508H363.48a113.52,113.52,0,1,0-157.8-153.78A92,92,0,0,0,104.94,508h-19v69.56H27.25v65.55H85.94V712.7H174a68.17,68.17,0,0,0,22.65,42.67H0v17.06H1570V755.37h-27.25ZM500,301.91h91.41V284.85H500V203.22H699.84v81.63H608.42v17.06h91.42V357H500Zm-60.1,211.55L497.15,374h205.5l57.29,139.44Zm16.36,77.81,43.91-23.06v84.31l-43.91-23.06Zm-58.68,3.37h41.63v31.45H397.54ZM85.94,626.09H44.31V594.64H85.94Zm217.77-311a96.49,96.49,0,1,1-66.95,166,91.89,91.89,0,0,0-17.27-116.56A97,97,0,0,1,303.71,315.06Zm-220.42,118a75,75,0,1,1,75,75A75,75,0,0,1,83.29,433.07ZM103,695.65V525.08h55.26a91.79,91.79,0,0,0,68.22-30.33,113.79,113.79,0,0,0,77.24,30.33h76.78V695.65Zm138.75,59.72a51.26,51.26,0,0,1-50.48-42.67h101A51.28,51.28,0,0,1,241.74,755.37Zm212.44,0,145.72-102,145.71,102Zm677.22,0H1010.93a221.84,221.84,0,0,0,59.2-36.47h61.27Zm360.81-385,14.54,31.18-20.14,9.4-45.73-16.65ZM1419,404.51l45.72,16.65-78.35,36.53-45.72-16.64ZM1247.75,521.62l-25.4-25.4,96.47-45,45.73,16.64L1249.3,521.62Zm51.47,51.47-34.41-34.41h104.37l-34.41,34.41Zm59.67,0,34.41-34.41h86.45l-34.41,34.41Zm166.85,0h-56.28l34.41-34.41h21.87Z"/><path class="cls-4" d="M44.31,352.19A37.13,37.13,0,1,0,7.18,315.06,37.16,37.16,0,0,0,44.31,352.19Zm0-57.2a20.08,20.08,0,1,1-20.08,20.07A20.09,20.09,0,0,1,44.31,295Z"/><path class="cls-4" d="M1044,242.9a27.16,27.16,0,1,0,27.15-27.16A27.18,27.18,0,0,0,1044,242.9Zm37.25,0a10.1,10.1,0,1,1-10.1-10.1A10.11,10.11,0,0,1,1081.26,242.9Z"/><path class="cls-4" d="M553.83,127.67,576.4,86.4l41.27-22.56L576.4,41.27,553.83,0,531.26,41.27,490,63.84,531.26,86.4Zm-10-73.84,10-18.29,10,18.29,18.29,10-18.29,10-10,18.29-10-18.29-18.29-10Z"/><path class="cls-4" d="M1533.66,143.65l16.82-30.75,30.75-16.82-30.75-16.82-16.82-30.75-16.82,30.75-30.75,16.82,30.75,16.82Zm-4.26-51.82,4.26-7.78,4.25,7.78,7.78,4.25-7.78,4.26-4.25,7.77-4.26-7.77-7.77-4.26Z"/><rect class="cls-4" x="84.09" y="67.41" width="17.05" height="28.67"/><rect class="cls-4" x="84.09" y="123.72" width="17.05" height="28.67"/><rect class="cls-4" x="50.13" y="101.37" width="28.67" height="17.05"/><rect class="cls-4" x="106.44" y="101.37" width="28.67" height="17.05"/><rect class="cls-4" x="1445.38" y="216.07" width="17.05" height="28.67" transform="translate(262.92 1095.55) rotate(-45)"/><rect class="cls-4" x="1485.2" y="255.89" width="17.05" height="28.67" transform="translate(246.43 1135.37) rotate(-45)"/><rect class="cls-4" x="1439.58" y="261.69" width="28.67" height="17.05" transform="translate(234.77 1107.22) rotate(-45)"/><rect class="cls-4" x="1479.39" y="221.88" width="28.67" height="17.05" transform="translate(274.61 1123.75) rotate(-45)"/></g></g></svg>